<?xml version="1.0" encoding="UTF-8" standalone="no"?>
<svg width="932px" height="845px" viewBox="0 0 932 845" version="1.1" xmlns="http://www.w3.org/2000/svg" xmlns:xlink="http://www.w3.org/1999/xlink" style="background: #FFFFFF;">
    <!-- Generator: Sketch 44.1 (41455) - http://www.bohemiancoding.com/sketch -->
    <title>Piso3</title>
       <style>
    .activo {
        fill:#ff6702;
        animation: parpadeo 1s;
        -webkit-animation: parpadeo 1s;
        -moz-animation: parpadeo 1s;
        animation-iteration-count:infinite;
        -webkit-animation-iteration-count:infinite;
        -moz-animation-iteration-count:infinite;
    }
    #metro-manquehue {
        margin-top:-25px;
    }
    @keyframes parpadeo { 
        0% {fill: white;}
        100%{fill:#ff6702;} 
    }

    @-webkit-keyframes parpadeo { 
        0% {fill: white;}
        100%{fill:#ff6702;} 
    }
</style>
    <defs>
        <polygon id="path-1" points="9.00849973e-05 0.218587697 31.0339211 0.218587697 31.0339211 24.3124673 9.00849973e-05 24.3124673"></polygon>
    </defs>
    <g id="Page-2" stroke="none" stroke-width="1" fill="none" fill-rule="evenodd">
        <g id="Piso3">
            <g id="elementos" transform="translate(75.000000, 19.000000)">
                <g id="metro-manquehue" transform="translate(700.000000, 757.141899)">
                    <g>
                        <g id="metro-icn" transform="translate(33.000000, 0.000000)">
                            <g>
                                <polygon id="Fill-1" fill="#DA0000" points="7.66875562 18.8959047 3.74465315 12.2720896 7.66875562 5.64827458 11.5928581 12.2720896"></polygon>
                                <polygon id="Fill-2" fill="#DA0000" points="15.5170056 18.8959047 11.5929031 12.2720896 15.5170056 5.64827458 19.4411081 12.2720896"></polygon>
                                <polygon id="Fill-3" fill="#DA0000" points="23.3652556 18.8959047 19.4411531 12.2720896 23.3652556 5.64827458 27.289358 12.2720896"></polygon>
                                <g id="Group-6" transform="translate(0.000000, 0.006528)">
                                    <mask id="mask-2" fill="white">
                                        <use xlink:href="#path-1"></use>
                                    </mask>
                                    <g id="Clip-5"></g>
                                    <path d="M15.5170056,1.23154245 C7.51970999,1.23154245 1.0135463,6.18139444 1.0135463,12.2656063 C1.0135463,18.349593 7.51970999,23.299445 15.5170056,23.299445 C23.5143012,23.299445 30.0204649,18.349593 30.0204649,12.2656063 C30.0204649,6.18139444 23.5143012,1.23154245 15.5170056,1.23154245 M15.5170056,24.3124673 C6.96095779,24.3124673 9.00849973e-05,18.9081059 9.00849973e-05,12.2656063 C9.00849973e-05,5.62265637 6.96095779,0.218520162 15.5170056,0.218520162 C24.0730534,0.218520162 31.0339211,5.62265637 31.0339211,12.2656063 C31.0339211,18.9081059 24.0730534,24.3124673 15.5170056,24.3124673" id="Fill-4" fill="#DA0000" mask="url(#mask-2)"></path>
                                </g>
                            </g>
                        </g>
                        <text id="Metro-Manquehue" font-family="Verdana" font-size="13" font-weight="normal" fill="#000000">
                            <tspan x="-9.04443359" y="40">Metro Manquehue</tspan>
                        </text>
                    </g>
                </g>
                <g id="bicicletas" transform="translate(262.000000, 77.000000)">
                    <rect id="Rectangle-22" fill="#F5F5F5" x="0.350552011" y="0.0781630877" width="341.219447" height="26.1734943"></rect>
                    <path d="M76.170361,10.9072983 C75.4463755,10.9072983 74.7947885,11.0553384 74.2156,11.2773986 L72.5504332,8.46463622 L73.0572231,7.20629515 L73.2744188,7.20629515 C73.7088101,7.20629515 73.9984043,6.9102149 73.9984043,6.46609452 C73.9984043,6.02197414 73.7088101,5.72589389 73.2744188,5.72589389 L71.1024621,5.72589389 C70.6680708,5.72589389 70.3784765,6.02197414 70.3784765,6.46609452 C70.3784765,6.9102149 70.6680708,7.20629515 71.1024621,7.20629515 L71.4644549,7.20629515 L71.1748606,7.94649578 L64.586592,7.94649578 L64.586592,4.98569326 L60.9666642,4.98569326 L60.9666642,6.46609452 L63.1386209,6.46609452 L63.1386209,8.53865628 L61.8354469,11.2033786 C61.328657,10.9813184 60.8218671,10.9072983 60.2426786,10.9072983 C57.4191349,10.9072983 55.1747797,13.2019202 55.1747797,16.0887027 C55.1747797,18.9754852 57.4191349,21.2701071 60.2426786,21.2701071 C63.0662223,21.2701071 65.3105776,18.9754852 65.3105776,16.0887027 C65.3105776,14.3122212 64.4417949,12.7577999 63.1386209,11.8695591 L64.0074036,10.1670977 L68.5685126,16.9029234 L71.1748606,16.9029234 C71.5368534,19.4196055 73.6364116,21.3441272 76.170361,21.3441272 C78.9939047,21.3441272 81.23826,19.0495052 81.23826,16.1627228 C81.23826,13.2019202 78.9939047,10.9072983 76.170361,10.9072983 Z M63.8626065,16.0887027 C63.8626065,18.1612645 62.2698382,19.7897059 60.2426786,19.7897059 C58.2155191,19.7897059 56.6227508,18.1612645 56.6227508,16.0887027 C56.6227508,14.0161409 58.2155191,12.3876996 60.2426786,12.3876996 C60.5322729,12.3876996 60.8942657,12.4617196 61.1838599,12.5357397 L59.5910916,15.7926225 L59.5910916,15.7926225 C59.5186931,15.8666425 59.5186931,15.9406626 59.5186931,16.0887027 C59.5186931,16.5328231 59.8082873,16.8289033 60.2426786,16.8289033 C60.5322729,16.8289033 60.7494685,16.6808632 60.8942657,16.384783 L60.8942657,16.384783 L62.4870339,13.1279002 C63.283418,13.8681008 63.8626065,14.9043817 63.8626065,16.0887027 Z M72.9848246,12.0916193 C72.0436433,12.90584 71.3920563,14.0161409 71.1748606,15.3485021 L70.0164837,15.3485021 L71.8988462,10.2411177 L72.9848246,12.0916193 Z M73.7088101,13.3499604 L74.867187,15.3485021 L72.6228318,15.3485021 C72.7676289,14.5342814 73.2020202,13.8681008 73.7088101,13.3499604 Z M68.7133097,14.5342814 L65.238179,9.42689704 L70.6680708,9.42689704 L68.7133097,14.5342814 Z M76.170361,19.7897059 C74.4327957,19.7897059 72.9848246,18.5313648 72.6228318,16.8289033 L76.170361,16.8289033 C76.6047524,16.8289033 76.8943466,16.5328231 76.8943466,16.0887027 C76.8943466,15.9406626 76.821948,15.7926225 76.7495495,15.7186024 L76.7495495,15.7186024 L74.9395856,12.6097597 C75.3015784,12.4617196 75.7359697,12.3876996 76.170361,12.3876996 C78.1975206,12.3876996 79.7902888,14.0161409 79.7902888,16.0887027 C79.7902888,18.1612645 78.1975206,19.7897059 76.170361,19.7897059 Z" id="Page-1-Copy-4" fill="#000000"></path>
                    <text id="Estacionamiento-bici" font-family="Verdana" font-size="14" font-weight="normal" fill="#000000">
                        <tspan x="110.817279" y="17.6215367">Estacionamiento bicicletas</tspan>
                    </text>
                </g>
                <g id="Mapa" transform="translate(38.000000, 155.000000)">
                    <g id="cuadrados" transform="translate(191.000000, 138.000000)">
                        <g id="rectangulo">
                            <g id="path-1-link" fill="#D9EEB2">
                                <polygon id="path-1" points="0.603456611 0.714856492 6.46086859 0.714856492 16.002754 0.714856492 16.002754 26.6856997 0.603456611 26.6856997"></polygon>
                            </g>
                            <polygon id="Shape" stroke="#FFFFFF" stroke-width="1.05" points="1.12845661 1.23985649 6.46086859 1.23985649 15.477754 1.23985649 15.477754 26.1606997 1.12845661 26.1606997"></polygon>
                        </g>
                        <g id="rectangulo" transform="translate(15.000000, 0.000000)">
                            <g id="path-2-link" fill="#D9EEB2">
                                <polygon id="path-2" points="0.0599398 0.714856492 15.9586295 0.714856492 41.8580326 0.714856492 41.8580326 26.6856997 0.0599398 26.6856997"></polygon>
                            </g>
                            <polygon id="Shape" stroke="#FFFFFF" stroke-width="1.05" points="0.5849398 1.23985649 15.9586295 1.23985649 41.3330326 1.23985649 41.3330326 26.1606997 0.5849398 26.1606997"></polygon>
                        </g>
                        <g id="rectgangulo" transform="translate(55.000000, 0.000000)">
                            <g id="path-3-link" fill="#D9EEB2">
                                <polygon id="path-3" points="0.9152185 0.714856492 20.0414617 0.714856492 51.198638 0.714856492 51.198638 26.6856997 0.9152185 26.6856997"></polygon>
                            </g>
                            <polygon id="Shape" stroke="#FFFFFF" stroke-width="1.05" points="1.4402185 1.23985649 20.0414617 1.23985649 50.673638 1.23985649 50.673638 26.1606997 1.4402185 26.1606997"></polygon>
                        </g>
                        <g id="rectangulo" transform="translate(0.000000, 278.000000)">
                            <g id="path-4-link" fill-opacity="0.300000012" fill="#82C700">
                                <polygon id="path-4" points="0.603456611 0.311333 5.74363447 0.311333 14.1171257 0.311333 14.1171257 24.448941 0.603456611 24.448941"></polygon>
                            </g>
                            <polygon id="Shape" stroke="#FFFFFF" stroke-width="1.05" points="1.12845661 0.836333 5.74363447 0.836333 13.5921257 0.836333 13.5921257 23.923941 1.12845661 23.923941"></polygon>
                        </g>
                        <g id="rectangulo" transform="translate(92.000000, 256.000000)">
                            <g id="path-5-link" fill-opacity="0.300000012" fill="#82C700">
                                <polygon id="path-5" points="0.3706979 0.451277 8.021195 0.451277 20.484066 0.451277 20.484066 19.700255 0.3706979 19.700255"></polygon>
                            </g>
                            <polygon id="Shape" stroke="#FFFFFF" stroke-width="1.05" points="0.8956979 0.976277 8.021195 0.976277 19.959066 0.976277 19.959066 19.175255 0.8956979 19.175255"></polygon>
                        </g>
                        <g id="rectangulo" transform="translate(101.000000, 274.000000)">
                            <g id="path-6-link" fill-opacity="0.300000012" fill="#82C700">
                                <polygon id="path-6" points="0.170296 0.783637 20.133313 0.783637 52.653616 0.783637 52.653616 26.448941 0.170296 26.448941"></polygon>
                            </g>
                            <polygon id="Shape" stroke="#FFFFFF" stroke-width="1.05" points="0.695296 1.308637 20.133313 1.308637 52.128616 1.308637 52.128616 25.923941 0.695296 25.923941"></polygon>
                        </g>
                        <g id="rectgangulo" transform="translate(108.000000, 299.000000)">
                            <g id="path-7-link" fill-opacity="0.300000012" fill="#82C700">
                                <polygon id="path-7" points="0.712809 0.532323 5.255292 0.532323 12.655122 0.532323 12.655122 19.781301 0.712809 19.781301"></polygon>
                            </g>
                            <polygon id="Shape" stroke="#FFFFFF" stroke-width="1.05" points="1.237809 1.057323 5.255292 1.057323 12.130122 1.057323 12.130122 19.256301 1.237809 19.256301"></polygon>
                        </g>
                        <g id="rectangulo" transform="translate(152.000000, 274.000000)">
                            <g id="path-8-link" fill-opacity="0.300000012" fill="#82C700">
                                <polygon id="path-8" points="0.710802 0.783637 15.414101 0.783637 39.366181 0.783637 39.366181 26.448941 0.710802 26.448941"></polygon>
                            </g>
                            <polygon id="Shape" stroke="#FFFFFF" stroke-width="1.05" points="1.235802 1.308637 15.414101 1.308637 38.841181 1.308637 38.841181 25.923941 1.235802 25.923941"></polygon>
                        </g>
                        <g id="rectangulo" transform="translate(190.000000, 274.000000)">
                            <g id="path-9-link" fill-opacity="0.300000012" fill="#82C700">
                                <polygon id="path-9" points="0.423367 0.783637 11.779574 0.783637 30.279147 0.783637 30.279147 26.448941 0.423367 26.448941"></polygon>
                            </g>
                            <polygon id="Shape" stroke="#FFFFFF" stroke-width="1.05" points="0.948367 1.308637 11.779574 1.308637 29.754147 1.308637 29.754147 25.923941 0.948367 25.923941"></polygon>
                        </g>
                        <g id="rectangulo" transform="translate(145.000000, 0.000000)">
                            <g id="path-10-link" fill="#D9EEB2">
                                <polygon id="path-10" points="0.168289 0.714856492 18.577298 0.714856492 48.566081 0.714856492 48.566081 26.6856997 0.168289 26.6856997"></polygon>
                            </g>
                            <polygon id="Shape" stroke="#FFFFFF" stroke-width="1.05" points="0.693289 1.23985649 18.577298 1.23985649 48.041081 1.23985649 48.041081 26.1606997 0.693289 26.1606997"></polygon>
                        </g>
                        <g id="rectangulo" transform="translate(192.000000, 0.000000)">
                            <g id="path-11-link" fill="#D9EEB2">
                                <polygon id="path-11" points="0.623266 0.714856492 16.0438 0.714856492 41.164274 0.714856492 41.164274 26.6856997 0.623266 26.6856997"></polygon>
                            </g>
                            <polygon id="Shape" stroke="#FFFFFF" stroke-width="1.05" points="1.148266 1.23985649 16.0438 1.23985649 40.639274 1.23985649 40.639274 26.1606997 1.148266 26.1606997"></polygon>
                        </g>
                    </g>
                    <g id="Baños" transform="translate(310.000000, 437.000000)">
                        <g id="path-12-link" fill-opacity="0.300000012" fill="#82C700">
                            <polygon id="path-12" points="0.712308 0.532323 38.964794 0.532323 101.279147 0.532323 101.279147 19.781301 0.712308 19.781301"></polygon>
                        </g>
                        <polygon id="Shape" stroke="#FFFFFF" stroke-width="1.05" points="1.237308 1.057323 38.964794 1.057323 100.754147 1.057323 100.754147 19.256301 1.237308 19.256301"></polygon>
                    </g>
                    <g id="locales" transform="translate(191.000000, 109.000000)">
                        <polygon id="Local-T10" stroke="#D9EEB2" stroke-width="3" points="232 148 232 31.4957082 0.999471556 31.4957082 0.999471556 330.510456 218.099512 330.510456 218.099512 303.958119 231.014475 303.958119"></polygon>
                        <path d="M233,268 L296.007936,268 C296.007936,268 299,239 264.5,213.5 L233,213.5 L233,268 Z" id="Local-T9" fill="#D9EEB2" fill-rule="nonzero"></path>
                        <g id="Local-T8b" transform="translate(243.000000, 268.000000)">
                            <g id="path-13-link" fill-opacity="0.300000012" fill="#82C700">
                                <polygon id="path-13" points="0.535229 0.341074 20.856862 0.341074 53.961363 0.341074 53.961363 35.783637 0.535229 35.783637"></polygon>
                            </g>
                            <polygon id="Shape" stroke="#FFFFFF" stroke-width="1.05" points="1.060229 0.866074 20.856862 0.866074 53.436363 0.866074 53.436363 35.258637 1.060229 35.258637"></polygon>
                        </g>
                        <g id="Local-T8a" transform="translate(244.000000, 302.000000)">
                            <g id="path-14-link" fill-opacity="0.300000012" fill="#82C700">
                                <polygon id="path-14" points="0.478043 0.867019 20.441059 0.867019 52.961363 0.867019 52.961363 26.837862 0.478043 26.837862"></polygon>
                            </g>
                            <polygon id="Shape" stroke="#FFFFFF" stroke-width="1.05" points="1.003043 1.392019 20.441059 1.392019 52.436363 1.392019 52.436363 26.312862 1.003043 26.312862"></polygon>
                        </g>
                        <g id="Local-T11b" class="activo" transform="translate(246.000000, 29.000000)">
                            <g id="path-15-link" fill="#D9EEB2">
                                <polygon id="path-15" points="0.677943 0.7148565 19.804186 0.7148565 50.961363 0.7148565 50.961363 26.3801603 0.677943 26.3801603"></polygon>
                            </g>
                            <polygon id="Shape" stroke="#FFFFFF" stroke-width="1.05" points="1.202943 1.2398565 19.804186 1.2398565 50.436363 1.2398565 50.436363 25.8551603 1.202943 25.8551603"></polygon>
                        </g>
                        <g id="Local-T11a" transform="translate(246.000000, 53.000000)" fill="#D9EEB2">
                            <g id="path-16-link">
                                <polygon id="path-16" points="0.677943 0.7148565 19.804186 0.7148565 50.961363 0.7148565 50.961363 36.1574189 0.677943 36.1574189"></polygon>
                            </g>
                            <polygon id="Shape" stroke="#FFFFFF" stroke-width="1.05" fill-rule="nonzero" points="1.202943 1.2398565 19.804186 1.2398565 50.436363 1.2398565 50.436363 35.6324189 1.202943 35.6324189"></polygon>
                        </g>
                        <g id="Local-T6" transform="translate(446.000000, 52.000000)">
                            <g id="path-17-link" fill-opacity="0.300000012" fill="#82C700">
                                <polygon id="path-17" points="0.868808 0.0192277 24.896151 0.0192277 64.037355 0.0192277 64.037355 54.710768 0.868808 54.710768"></polygon>
                            </g>
                            <polygon id="Shape" stroke="#FFFFFF" stroke-width="1.05" points="1.393808 0.5442277 24.896151 0.5442277 63.512355 0.5442277 63.512355 54.185768 1.393808 54.185768"></polygon>
                        </g>
                        <g id="Local-T5" transform="translate(446.000000, 105.000000)">
                            <g id="path-18-link" fill-opacity="0.300000012" fill="#82C700">
                                <polygon id="path-18" points="0.868808 0.79415 24.896151 0.79415 64.037355 0.79415 64.037355 54.874612 0.868808 54.874612"></polygon>
                            </g>
                            <polygon id="Shape" stroke="#FFFFFF" stroke-width="1.05" points="1.393808 1.31915 24.896151 1.31915 63.512355 1.31915 63.512355 54.349612 1.393808 54.349612"></polygon>
                        </g>
                        <g id="Loacl-T4" transform="translate(446.000000, 158.000000)">
                            <g id="path-19-link" fill="#D9EEB2">
                                <polygon id="path-19" points="0.868808 0.957994 24.896151 0.957994 64.037355 0.957994 64.037355 52.89968 0.868808 52.89968"></polygon>
                            </g>
                            <polygon id="Shape" stroke="#FFFFFF" stroke-width="1.05" points="1.393808 1.482994 24.896151 1.482994 63.512355 1.482994 63.512355 52.37468 1.393808 52.37468"></polygon>
                        </g>
                        <g id="Local-T3" transform="translate(446.000000, 209.000000)">
                            <g id="path-20-link" fill-opacity="0.300000012" fill="#82C700">
                                <polygon id="path-20" points="0.868808 0.983062 24.896151 0.983062 64.037355 0.983062 64.037355 53.535827 0.868808 53.535827"></polygon>
                            </g>
                            <polygon id="Shape" stroke="#FFFFFF" stroke-width="1.05" points="1.393808 1.508062 24.896151 1.508062 63.512355 1.508062 63.512355 53.010827 1.393808 53.010827"></polygon>
                        </g>
                        <g id="Local-T2" transform="translate(446.000000, 261.000000)">
                            <g id="path-21-link" fill-opacity="0.300000012" fill="#82C700">
                                <polygon id="path-21" points="0.868808 0.619209 24.896151 0.619209 64.037355 0.619209 64.037355 54.699671 0.868808 54.699671"></polygon>
                            </g>
                            <polygon id="Shape" stroke="#FFFFFF" stroke-width="1.05" points="1.393808 1.144209 24.896151 1.144209 63.512355 1.144209 63.512355 54.174671 1.393808 54.174671"></polygon>
                        </g>
                        <g id="Local-T1" transform="translate(446.000000, 314.000000)">
                            <g id="path-22-link" fill-opacity="0.300000012" fill="#82C700">
                                <polygon id="path-22" points="0.868808 0.783053 24.896151 0.783053 64.037355 0.783053 64.037355 53.335818 0.868808 53.335818"></polygon>
                            </g>
                            <polygon id="Shape" stroke="#FFFFFF" stroke-width="1.05" points="1.393808 1.308053 24.896151 1.308053 63.512355 1.308053 63.512355 52.810818 1.393808 52.810818"></polygon>
                        </g>
                        <g id="Local-T7" transform="translate(446.000000, 0.000000)">
                            <g id="path-23-link" fill-opacity="0.300000012" fill="#82C700">
                                <polygon id="path-23" points="23.822858 0.38308067 64.037355 0.38308067 64.037355 52.9358457 0.868808 52.9358457 0.868808 23.3300329"></polygon>
                            </g>
                            <polygon id="Shape" stroke="#FFFFFF" stroke-width="1.05" points="24.040272 0.90808067 63.512355 0.90808067 63.512355 52.4108457 1.393808 52.4108457 1.393808 23.5475426"></polygon>
                        </g>
                        <g id="Local-T10" transform="translate(232.000000, 88.000000)">
                            <g id="path-24-link" fill="#D9EEB2">
                                <polygon id="path-24" points="0.22146 0.0728688 24.846498 0.0728688 64.961363 0.0728688 64.961363 39.586064 43.188057 60.264117 0.22146 60.264117"></polygon>
                            </g>
                            <polygon id="Shape" stroke="#FFFFFF" stroke-width="1.05" points="0.74646 0.5978688 24.846498 0.5978688 64.436363 0.5978688 64.436363 39.360626 42.978486 59.739117 0.74646 59.739117"></polygon>
                        </g>
                    </g>
                    <g id="lineas" transform="translate(410.000000, 0.000000)">
                        <polyline id="Line" stroke-opacity="0.3" stroke="#82C700" points="290.53526 109.384822 290.53526 0 77.3328199 1.73386272e-14 77.3328199 47.1710057"></polyline>
                        <path d="M77.9164668,78.6763779 L77.9164668,121.147444" id="Line" stroke-opacity="0.3" stroke="#82C700" fill-opacity="0.300000012" fill="#82C700" fill-rule="nonzero"></path>
                        <polyline id="Line-Copy-3" stroke-opacity="0.3" stroke="#82C700" points="77.3538034 547.829803 77.3538034 583.856346 257.44708 583.779779 290.565947 554.643803 290.565947 474.95915"></polyline>
                        <polyline id="Line" stroke="#D9EEB2" points="0.493468897 456.322992 77.18148 456.322992 77.18148 516.09991"></polyline>
                        <path d="M0.803246296,413.241946 L13.0598299,413.241946 L13.0598299,322.472702 L45.7180065,322.472702 C45.7180065,322.472702 77.5,339.626791 77.5,375.5" id="Line" stroke="#D9EEB2"></path>
                    </g>
                    <g id="puntos" transform="translate(519.388500, 105.105530)" fill-rule="nonzero" fill="#84BB1F">
                        <ellipse id="Oval" cx="2.67130668" cy="2.59708432" rx="2.67130668" ry="2.59708432"></ellipse>
                        <ellipse id="Oval-Copy" cx="2.67130668" cy="55.2371463" rx="2.67130668" ry="2.59708432"></ellipse>
                        <ellipse id="Oval-Copy-2" cx="2.67130668" cy="107.877208" rx="2.67130668" ry="2.59708432"></ellipse>
                        <ellipse id="Oval-Copy-3" cx="2.67130668" cy="160.51727" rx="2.67130668" ry="2.59708432"></ellipse>
                        <ellipse id="Oval-Copy-4" cx="2.67130668" cy="213.157332" rx="2.67130668" ry="2.59708432"></ellipse>
                        <ellipse id="Oval-Copy-5" cx="2.67130668" cy="265.797394" rx="2.67130668" ry="2.59708432"></ellipse>
                        <ellipse id="Oval-Copy-6" cx="2.67130668" cy="318.437456" rx="2.67130668" ry="2.59708432"></ellipse>
                        <ellipse id="Oval-Copy-7" cx="2.67130668" cy="371.077518" rx="2.67130668" ry="2.59708432"></ellipse>
                    </g>
                    <g id="puntos" transform="translate(581.299961, 105.105530)" fill-rule="nonzero" fill="#84BB1F">
                        <ellipse id="Oval" cx="2.67130668" cy="2.59708432" rx="2.67130668" ry="2.59708432"></ellipse>
                        <ellipse id="Oval-Copy" cx="2.67130668" cy="55.2371463" rx="2.67130668" ry="2.59708432"></ellipse>
                        <ellipse id="Oval-Copy-2" cx="2.67130668" cy="107.877208" rx="2.67130668" ry="2.59708432"></ellipse>
                        <ellipse id="Oval-Copy-3" cx="2.67130668" cy="160.51727" rx="2.67130668" ry="2.59708432"></ellipse>
                        <ellipse id="Oval-Copy-4" cx="2.67130668" cy="213.157332" rx="2.67130668" ry="2.59708432"></ellipse>
                        <ellipse id="Oval-Copy-5" cx="2.67130668" cy="265.797394" rx="2.67130668" ry="2.59708432"></ellipse>
                        <ellipse id="Oval-Copy-6" cx="2.67130668" cy="318.437456" rx="2.67130668" ry="2.59708432"></ellipse>
                        <ellipse id="Oval-Copy-7" cx="2.67130668" cy="371.077518" rx="2.67130668" ry="2.59708432"></ellipse>
                    </g>
                    <g id="puntos" transform="translate(241.572605, 214.183071)" fill-rule="nonzero" fill="#84BB1F">
                        <ellipse id="Oval" cx="154.778652" cy="2.59708432" rx="2.67130668" ry="2.59708432"></ellipse>
                        <ellipse id="Oval-Copy-9" cx="154.778652" cy="152.922435" rx="2.67130668" ry="2.59708432"></ellipse>
                        <ellipse id="Oval-Copy-8" cx="2.67130668" cy="2.59708432" rx="2.67130668" ry="2.59708432"></ellipse>
                        <ellipse id="Oval-Copy-10" cx="2.67130668" cy="152.922435" rx="2.67130668" ry="2.59708432"></ellipse>
                    </g>
                    <g id="escalera" transform="translate(559.000000, 507.000000)">
                        <path d="M50.8110721,25.1164682 C51.5371847,25.1164682 52.1464414,25.5096388 52.4277283,26.0953711 L49.0270117,29.3827143 L49.0270117,26.8409007 C49.0270117,25.8706201 49.8072408,25.1164682 50.8110721,25.1164682 L50.8110721,25.1164682 Z M60.4191297,20.805387 L63.5968387,20.805387 C64.2712135,20.805387 64.7862123,21.3031731 64.7862123,21.9550086 C64.7862123,22.6068441 64.2712135,23.1046303 63.5968387,23.1046303 L61.784828,23.1046303 C61.5481426,23.1040555 61.3206749,23.1945882 61.1529732,23.3561101 L45.9512915,38.0497121 L42.7828001,38.0497121 C42.1084253,38.0497121 41.5934265,37.5519259 41.5934265,36.9000904 C41.5934265,36.2482549 42.1084253,35.7504687 42.7828001,35.7504687 L44.5948109,35.7504687 C44.8329829,35.7487443 45.0604506,35.6547627 45.2266656,35.4900794 L60.4191297,20.805387 Z M59.9635996,19.0809545 C59.7593247,19.1022225 59.5690249,19.1910307 59.4248133,19.3324342 L53.7101704,24.8560789 C53.0631511,23.9740317 52.0069873,23.3920357 50.8110721,23.3920357 C48.849795,23.3920357 47.2429512,24.9451746 47.2429512,26.8409007 L47.2429512,31.1071468 L44.2231316,34.0260362 L42.7828001,34.0260362 C41.1509795,34.0260362 39.809366,35.3228094 39.809366,36.9000904 C39.809366,38.4773713 41.1509795,39.7741446 42.7828001,39.7741446 L46.3229707,39.7741446 C46.5611428,39.7724201 46.7886105,39.6784386 46.9548255,39.5137553 L62.1472896,24.8290628 L63.5968387,24.8290628 C65.2286593,24.8290628 66.5702728,23.5322896 66.5702728,21.9550086 C66.5702728,20.3777277 65.2286593,19.0809545 63.5968387,19.0809545 L60.0566681,19.0809545 C60.0257444,19.0795174 59.9945233,19.0795174 59.9635996,19.0809545 L59.9635996,19.0809545 Z M50.8110721,18.5061436 C51.4786081,18.5061436 52.0004458,19.0105401 52.0004458,19.6557653 C52.0004458,20.3009905 51.4786081,20.805387 50.8110721,20.805387 C50.1435362,20.805387 49.6216985,20.3009905 49.6216985,19.6557653 C49.6216985,19.0105401 50.1435362,18.5061436 50.8110721,18.5061436 L50.8110721,18.5061436 Z M50.8110721,16.7817111 C49.1795489,16.7817111 47.8376381,18.0787718 47.8376381,19.6557653 C47.8376381,21.2327588 49.1795489,22.5298195 50.8110721,22.5298195 C52.4425954,22.5298195 53.7845062,21.2327588 53.7845062,19.6557653 C53.7845062,18.0787718 52.4425954,16.7817111 50.8110721,16.7817111 L50.8110721,16.7817111 Z" id="Page-1-Copy-15" fill="#257961"></path>
                        <rect id="Rectangle-18-Copy-3" stroke-opacity="0.3" stroke="#82C700" stroke-width="3" x="0.85815056" y="0.47313293" width="104.48081" height="56.2746303"></rect>
                    </g>
                    <g id="escalera" transform="translate(0.000000, 507.000000)">
                        <path d="M50.8110721,25.1164682 C51.5371847,25.1164682 52.1464414,25.5096388 52.4277283,26.0953711 L49.0270117,29.3827143 L49.0270117,26.8409007 C49.0270117,25.8706201 49.8072408,25.1164682 50.8110721,25.1164682 L50.8110721,25.1164682 Z M60.4191297,20.805387 L63.5968387,20.805387 C64.2712135,20.805387 64.7862123,21.3031731 64.7862123,21.9550086 C64.7862123,22.6068441 64.2712135,23.1046303 63.5968387,23.1046303 L61.784828,23.1046303 C61.5481426,23.1040555 61.3206749,23.1945882 61.1529732,23.3561101 L45.9512915,38.0497121 L42.7828001,38.0497121 C42.1084253,38.0497121 41.5934265,37.5519259 41.5934265,36.9000904 C41.5934265,36.2482549 42.1084253,35.7504687 42.7828001,35.7504687 L44.5948109,35.7504687 C44.8329829,35.7487443 45.0604506,35.6547627 45.2266656,35.4900794 L60.4191297,20.805387 Z M59.9635996,19.0809545 C59.7593247,19.1022225 59.5690249,19.1910307 59.4248133,19.3324342 L53.7101704,24.8560789 C53.0631511,23.9740317 52.0069873,23.3920357 50.8110721,23.3920357 C48.849795,23.3920357 47.2429512,24.9451746 47.2429512,26.8409007 L47.2429512,31.1071468 L44.2231316,34.0260362 L42.7828001,34.0260362 C41.1509795,34.0260362 39.809366,35.3228094 39.809366,36.9000904 C39.809366,38.4773713 41.1509795,39.7741446 42.7828001,39.7741446 L46.3229707,39.7741446 C46.5611428,39.7724201 46.7886105,39.6784386 46.9548255,39.5137553 L62.1472896,24.8290628 L63.5968387,24.8290628 C65.2286593,24.8290628 66.5702728,23.5322896 66.5702728,21.9550086 C66.5702728,20.3777277 65.2286593,19.0809545 63.5968387,19.0809545 L60.0566681,19.0809545 C60.0257444,19.0795174 59.9945233,19.0795174 59.9635996,19.0809545 L59.9635996,19.0809545 Z M50.8110721,18.5061436 C51.4786081,18.5061436 52.0004458,19.0105401 52.0004458,19.6557653 C52.0004458,20.3009905 51.4786081,20.805387 50.8110721,20.805387 C50.1435362,20.805387 49.6216985,20.3009905 49.6216985,19.6557653 C49.6216985,19.0105401 50.1435362,18.5061436 50.8110721,18.5061436 L50.8110721,18.5061436 Z M50.8110721,16.7817111 C49.1795489,16.7817111 47.8376381,18.0787718 47.8376381,19.6557653 C47.8376381,21.2327588 49.1795489,22.5298195 50.8110721,22.5298195 C52.4425954,22.5298195 53.7845062,21.2327588 53.7845062,19.6557653 C53.7845062,18.0787718 52.4425954,16.7817111 50.8110721,16.7817111 L50.8110721,16.7817111 Z" id="Page-1-Copy-15" fill="#257961"></path>
                        <rect id="Rectangle-18-Copy-3" stroke-opacity="0.3" stroke="#82C700" stroke-width="3" x="0.85815056" y="0.47313293" width="104.48081" height="56.2746303"></rect>
                    </g>
                    <g id="escalera" transform="translate(0.000000, 14.000000)">
                        <path d="M50.8110721,25.1164682 C51.5371847,25.1164682 52.1464414,25.5096388 52.4277283,26.0953711 L49.0270117,29.3827143 L49.0270117,26.8409007 C49.0270117,25.8706201 49.8072408,25.1164682 50.8110721,25.1164682 L50.8110721,25.1164682 Z M60.4191297,20.805387 L63.5968387,20.805387 C64.2712135,20.805387 64.7862123,21.3031731 64.7862123,21.9550086 C64.7862123,22.6068441 64.2712135,23.1046303 63.5968387,23.1046303 L61.784828,23.1046303 C61.5481426,23.1040555 61.3206749,23.1945882 61.1529732,23.3561101 L45.9512915,38.0497121 L42.7828001,38.0497121 C42.1084253,38.0497121 41.5934265,37.5519259 41.5934265,36.9000904 C41.5934265,36.2482549 42.1084253,35.7504687 42.7828001,35.7504687 L44.5948109,35.7504687 C44.8329829,35.7487443 45.0604506,35.6547627 45.2266656,35.4900794 L60.4191297,20.805387 Z M59.9635996,19.0809545 C59.7593247,19.1022225 59.5690249,19.1910307 59.4248133,19.3324342 L53.7101704,24.8560789 C53.0631511,23.9740317 52.0069873,23.3920357 50.8110721,23.3920357 C48.849795,23.3920357 47.2429512,24.9451746 47.2429512,26.8409007 L47.2429512,31.1071468 L44.2231316,34.0260362 L42.7828001,34.0260362 C41.1509795,34.0260362 39.809366,35.3228094 39.809366,36.9000904 C39.809366,38.4773713 41.1509795,39.7741446 42.7828001,39.7741446 L46.3229707,39.7741446 C46.5611428,39.7724201 46.7886105,39.6784386 46.9548255,39.5137553 L62.1472896,24.8290628 L63.5968387,24.8290628 C65.2286593,24.8290628 66.5702728,23.5322896 66.5702728,21.9550086 C66.5702728,20.3777277 65.2286593,19.0809545 63.5968387,19.0809545 L60.0566681,19.0809545 C60.0257444,19.0795174 59.9945233,19.0795174 59.9635996,19.0809545 L59.9635996,19.0809545 Z M50.8110721,18.5061436 C51.4786081,18.5061436 52.0004458,19.0105401 52.0004458,19.6557653 C52.0004458,20.3009905 51.4786081,20.805387 50.8110721,20.805387 C50.1435362,20.805387 49.6216985,20.3009905 49.6216985,19.6557653 C49.6216985,19.0105401 50.1435362,18.5061436 50.8110721,18.5061436 L50.8110721,18.5061436 Z M50.8110721,16.7817111 C49.1795489,16.7817111 47.8376381,18.0787718 47.8376381,19.6557653 C47.8376381,21.2327588 49.1795489,22.5298195 50.8110721,22.5298195 C52.4425954,22.5298195 53.7845062,21.2327588 53.7845062,19.6557653 C53.7845062,18.0787718 52.4425954,16.7817111 50.8110721,16.7817111 L50.8110721,16.7817111 Z" id="Page-1-Copy-15" fill="#257961"></path>
                        <rect id="Rectangle-18-Copy-3" stroke-opacity="0.3" stroke="#82C700" stroke-width="3" x="0.85815056" y="0.47313293" width="104.48081" height="56.2746303"></rect>
                    </g>
                    <g id="escalera" transform="translate(559.000000, 14.523608)">
                        <path d="M50.8110721,25.1164682 C51.5371847,25.1164682 52.1464414,25.5096388 52.4277283,26.0953711 L49.0270117,29.3827143 L49.0270117,26.8409007 C49.0270117,25.8706201 49.8072408,25.1164682 50.8110721,25.1164682 L50.8110721,25.1164682 Z M60.4191297,20.805387 L63.5968387,20.805387 C64.2712135,20.805387 64.7862123,21.3031731 64.7862123,21.9550086 C64.7862123,22.6068441 64.2712135,23.1046303 63.5968387,23.1046303 L61.784828,23.1046303 C61.5481426,23.1040555 61.3206749,23.1945882 61.1529732,23.3561101 L45.9512915,38.0497121 L42.7828001,38.0497121 C42.1084253,38.0497121 41.5934265,37.5519259 41.5934265,36.9000904 C41.5934265,36.2482549 42.1084253,35.7504687 42.7828001,35.7504687 L44.5948109,35.7504687 C44.8329829,35.7487443 45.0604506,35.6547627 45.2266656,35.4900794 L60.4191297,20.805387 Z M59.9635996,19.0809545 C59.7593247,19.1022225 59.5690249,19.1910307 59.4248133,19.3324342 L53.7101704,24.8560789 C53.0631511,23.9740317 52.0069873,23.3920357 50.8110721,23.3920357 C48.849795,23.3920357 47.2429512,24.9451746 47.2429512,26.8409007 L47.2429512,31.1071468 L44.2231316,34.0260362 L42.7828001,34.0260362 C41.1509795,34.0260362 39.809366,35.3228094 39.809366,36.9000904 C39.809366,38.4773713 41.1509795,39.7741446 42.7828001,39.7741446 L46.3229707,39.7741446 C46.5611428,39.7724201 46.7886105,39.6784386 46.9548255,39.5137553 L62.1472896,24.8290628 L63.5968387,24.8290628 C65.2286593,24.8290628 66.5702728,23.5322896 66.5702728,21.9550086 C66.5702728,20.3777277 65.2286593,19.0809545 63.5968387,19.0809545 L60.0566681,19.0809545 C60.0257444,19.0795174 59.9945233,19.0795174 59.9635996,19.0809545 L59.9635996,19.0809545 Z M50.8110721,18.5061436 C51.4786081,18.5061436 52.0004458,19.0105401 52.0004458,19.6557653 C52.0004458,20.3009905 51.4786081,20.805387 50.8110721,20.805387 C50.1435362,20.805387 49.6216985,20.3009905 49.6216985,19.6557653 C49.6216985,19.0105401 50.1435362,18.5061436 50.8110721,18.5061436 L50.8110721,18.5061436 Z M50.8110721,16.7817111 C49.1795489,16.7817111 47.8376381,18.0787718 47.8376381,19.6557653 C47.8376381,21.2327588 49.1795489,22.5298195 50.8110721,22.5298195 C52.4425954,22.5298195 53.7845062,21.2327588 53.7845062,19.6557653 C53.7845062,18.0787718 52.4425954,16.7817111 50.8110721,16.7817111 L50.8110721,16.7817111 Z" id="Page-1-Copy-15" fill="#257961"></path>
                        <rect id="Rectangle-18-Copy-3" stroke-opacity="0.3" stroke="#82C700" stroke-width="3" x="0.85815056" y="0.47313293" width="104.48081" height="56.2746303"></rect>
                    </g>
                </g>
                <g id="estacionamiento-icn" transform="translate(39.000000, 282.000000)">
                    <g id="Group-5">
                        <g id="Group">
                            <text id="Zona-de" fill="#000000" font-family="Verdana" font-size="12" font-weight="normal">
                                <tspan x="26.208" y="91.672058">Zona de</tspan>
                            </text>
                            <text id="estacionamiento" fill="#000000" font-family="Verdana" font-size="12" font-weight="normal">
                                <tspan x="0.546" y="108.672058">estacionamiento</tspan>
                            </text>
                            <g id="Group-4" transform="translate(16.000000, 0.000000)" fill-rule="nonzero">
                                <path d="M37,73.5 C16.8416066,73.5 0.5,57.1583934 0.5,37 C0.5,16.8416066 16.8416066,0.5 37,0.5 C57.1583934,0.5 73.5,16.8416066 73.5,37 C73.5,57.1583934 57.1583934,73.5 37,73.5 Z M37,68.5 C54.3969696,68.5 68.5,54.3969696 68.5,37 C68.5,19.6030304 54.3969696,5.5 37,5.5 C19.6030304,5.5 5.5,19.6030304 5.5,37 C5.5,54.3969696 19.6030304,68.5 37,68.5 Z" id="Oval-2" fill="#EB4D3D"></path>
                                <polygon id="E" fill="#878787" points="46.5518672 22 46.5518672 26.5878285 32.7883817 26.5878285 32.7883817 35.1846473 43.6362379 35.1846473 43.6362379 39.6224066 32.7883817 39.6224066 32.7883817 48.3907331 46.5518672 48.3907331 46.5518672 53 27 53 27 22"></polygon>
                            </g>
                        </g>
                    </g>
                </g>
                <g id="estacionamiento-icn" transform="translate(292.000000, 162.000000)">
                    <g id="Group-5">
                        <g id="Group">
                            <text id="Zona-de" fill="#000000" font-family="Verdana" font-size="12" font-weight="normal">
                                <tspan x="26.208" y="91.672058">Zona de</tspan>
                            </text>
                            <text id="estacionamiento" fill="#000000" font-family="Verdana" font-size="12" font-weight="normal">
                                <tspan x="0.546" y="108.672058">estacionamiento</tspan>
                            </text>
                            <g id="Group-4" transform="translate(16.000000, 0.000000)" fill-rule="nonzero">
                                <path d="M37,73.5 C16.8416066,73.5 0.5,57.1583934 0.5,37 C0.5,16.8416066 16.8416066,0.5 37,0.5 C57.1583934,0.5 73.5,16.8416066 73.5,37 C73.5,57.1583934 57.1583934,73.5 37,73.5 Z M37,68.5 C54.3969696,68.5 68.5,54.3969696 68.5,37 C68.5,19.6030304 54.3969696,5.5 37,5.5 C19.6030304,5.5 5.5,19.6030304 5.5,37 C5.5,54.3969696 19.6030304,68.5 37,68.5 Z" id="Oval-2" fill="#EB4D3D"></path>
                                <polygon id="E" fill="#878787" points="46.5518672 22 46.5518672 26.5878285 32.7883817 26.5878285 32.7883817 35.1846473 43.6362379 35.1846473 43.6362379 39.6224066 32.7883817 39.6224066 32.7883817 48.3907331 46.5518672 48.3907331 46.5518672 53 27 53 27 22"></polygon>
                            </g>
                        </g>
                    </g>
                </g>
                <g id="estacionamiento-icn" transform="translate(292.000000, 619.000000)">
                    <g id="Group-5">
                        <g id="Group">
                            <text id="Zona-de" fill="#000000" font-family="Verdana" font-size="12" font-weight="normal">
                                <tspan x="26.208" y="91.672058">Zona de</tspan>
                            </text>
                            <text id="estacionamiento" fill="#000000" font-family="Verdana" font-size="12" font-weight="normal">
                                <tspan x="0.546" y="108.672058">estacionamiento</tspan>
                            </text>
                            <g id="Group-4" transform="translate(16.000000, 0.000000)" fill-rule="nonzero">
                                <path d="M37,73.5 C16.8416066,73.5 0.5,57.1583934 0.5,37 C0.5,16.8416066 16.8416066,0.5 37,0.5 C57.1583934,0.5 73.5,16.8416066 73.5,37 C73.5,57.1583934 57.1583934,73.5 37,73.5 Z M37,68.5 C54.3969696,68.5 68.5,54.3969696 68.5,37 C68.5,19.6030304 54.3969696,5.5 37,5.5 C19.6030304,5.5 5.5,19.6030304 5.5,37 C5.5,54.3969696 19.6030304,68.5 37,68.5 Z" id="Oval-2" fill="#EB4D3D"></path>
                                <polygon id="E" fill="#878787" points="46.5518672 22 46.5518672 26.5878285 32.7883817 26.5878285 32.7883817 35.1846473 43.6362379 35.1846473 43.6362379 39.6224066 32.7883817 39.6224066 32.7883817 48.3907331 46.5518672 48.3907331 46.5518672 53 27 53 27 22"></polygon>
                            </g>
                        </g>
                    </g>
                </g>
                <g id="estacionamiento-icn" transform="translate(39.000000, 456.000000)">
                    <g id="Group-5">
                        <g id="Group">
                            <text id="Zona-de" fill="#000000" font-family="Verdana" font-size="12" font-weight="normal">
                                <tspan x="26.208" y="91.672058">Zona de</tspan>
                            </text>
                            <text id="estacionamiento" fill="#000000" font-family="Verdana" font-size="12" font-weight="normal">
                                <tspan x="0.546" y="108.672058">estacionamiento</tspan>
                            </text>
                            <g id="Group-4" transform="translate(16.000000, 0.000000)" fill-rule="nonzero">
                                <path d="M37,73.5 C16.8416066,73.5 0.5,57.1583934 0.5,37 C0.5,16.8416066 16.8416066,0.5 37,0.5 C57.1583934,0.5 73.5,16.8416066 73.5,37 C73.5,57.1583934 57.1583934,73.5 37,73.5 Z M37,68.5 C54.3969696,68.5 68.5,54.3969696 68.5,37 C68.5,19.6030304 54.3969696,5.5 37,5.5 C19.6030304,5.5 5.5,19.6030304 5.5,37 C5.5,54.3969696 19.6030304,68.5 37,68.5 Z" id="Oval-2" fill="#EB4D3D"></path>
                                <polygon id="E" fill="#878787" points="46.5518672 22 46.5518672 26.5878285 32.7883817 26.5878285 32.7883817 35.1846473 43.6362379 35.1846473 43.6362379 39.6224066 32.7883817 39.6224066 32.7883817 48.3907331 46.5518672 48.3907331 46.5518672 53 27 53 27 22"></polygon>
                            </g>
                        </g>
                    </g>
                </g>
                <text id="Piso-3" font-family="Verdana" font-size="28" font-weight="normal" fill="#82C700">
                    <tspan x="0.317021224" y="28">Piso 3</tspan>
                </text>
            </g>
            <text id="Calle-Del-Inca" font-family="Verdana" font-size="18" font-weight="normal" fill="#000000">
                <tspan x="403.338379" y="61.2837974">Calle Del Inca</tspan>
            </text>
            <text id="Av.-Apoquindo" font-family="Verdana" font-size="18" font-weight="normal" fill="#000000">
                <tspan x="401.334473" y="784.641899">Av. Apoquindo</tspan>
            </text>
            <text id="Av.-Manquehue-Sur" transform="translate(31.151093, 422.469204) rotate(-90.000000) translate(-31.151093, -422.469204) " font-family="Verdana" font-size="18" font-weight="normal" fill="#000000">
                <tspan x="-58.3181107" y="429.469204">Av. Manquehue Sur</tspan>
            </text>
            <path d="M796.562226,426.583578 L794.821992,426.583578 L794.821992,415.307211 L791.18332,422.980062 L790.14621,422.980062 L786.533906,415.307211 L786.533906,426.583578 L784.907929,426.583578 L784.907929,413.496664 L787.280976,413.496664 L790.770234,420.782797 L794.145234,413.496664 L796.562226,413.496664 L796.562226,426.583578 Z M807.574921,426.583578 L805.931367,426.583578 L805.931367,425.537679 C805.784882,425.637289 805.58713,425.776448 805.338105,425.95516 C805.08908,426.133872 804.847383,426.27596 804.613007,426.381429 C804.337615,426.516196 804.021212,426.628988 803.663789,426.719808 C803.306365,426.810629 802.887424,426.856039 802.406953,426.856039 C801.522183,426.856039 800.77219,426.563073 800.156953,425.977133 C799.541715,425.391192 799.234101,424.644129 799.234101,423.735922 C799.234101,422.991777 799.393767,422.389732 799.713105,421.929769 C800.032443,421.469806 800.488004,421.107993 801.079804,420.84432 C801.677463,420.580647 802.39523,420.401938 803.233125,420.308187 C804.071019,420.214437 804.970424,420.144125 805.931367,420.09725 L805.931367,419.842367 C805.931367,419.467365 805.865449,419.156821 805.733613,418.910726 C805.601776,418.664631 805.412813,418.471274 805.166718,418.330648 C804.932342,418.195882 804.651095,418.105062 804.322968,418.058187 C803.994842,418.011312 803.652072,417.987875 803.294648,417.987875 C802.861052,417.987875 802.377658,418.045003 801.844453,418.159261 C801.311247,418.27352 800.760471,418.439045 800.192109,418.655843 L800.104218,418.655843 L800.104218,416.977133 C800.426485,416.889241 800.892301,416.792563 801.501679,416.687093 C802.111057,416.581624 802.711637,416.52889 803.303437,416.52889 C803.994847,416.52889 804.596891,416.586019 805.109589,416.700277 C805.622287,416.814535 806.06613,417.009358 806.441132,417.28475 C806.810275,417.554282 807.091522,417.902912 807.284882,418.330648 C807.478243,418.758385 807.574921,419.288653 807.574921,419.921468 L807.574921,426.583578 Z M805.931367,424.166586 L805.931367,421.433187 C805.427458,421.462484 804.834202,421.506429 804.151582,421.565023 C803.468961,421.623617 802.928439,421.708577 802.53,421.819906 C802.055388,421.954672 801.671603,422.164143 801.378632,422.448324 C801.085662,422.732505 800.939179,423.123614 800.939179,423.621664 C800.939179,424.184167 801.109099,424.607502 801.448945,424.891683 C801.78879,425.175864 802.30734,425.317953 803.004609,425.317953 C803.58469,425.317953 804.114958,425.205161 804.595429,424.979574 C805.0759,424.753987 805.521208,424.482993 805.931367,424.166586 Z M816.882539,418.567953 L816.794648,418.567953 C816.548553,418.509359 816.309786,418.466879 816.078339,418.440511 C815.846893,418.414144 815.57297,418.400961 815.256562,418.400961 C814.746794,418.400961 814.254611,418.513752 813.78,418.73934 C813.305388,418.964927 812.848361,419.256428 812.408906,419.613851 L812.408906,426.583578 L810.756562,426.583578 L810.756562,416.766195 L812.408906,416.766195 L812.408906,418.21639 C813.065159,417.689044 813.643767,417.315513 814.144746,417.095785 C814.645725,416.876057 815.15695,416.766195 815.678437,416.766195 C815.965548,416.766195 816.173554,416.773519 816.30246,416.788168 C816.431367,416.802816 816.624725,416.830648 816.882539,416.871664 L816.882539,418.567953 Z M832.729218,426.583578 L831.076875,426.583578 L831.076875,425.555258 C830.602263,425.965416 830.107151,426.284749 829.591523,426.513265 C829.075895,426.741782 828.516331,426.856039 827.912812,426.856039 C826.740931,426.856039 825.810765,426.404871 825.122285,425.502523 C824.433805,424.600175 824.08957,423.349211 824.08957,421.749593 C824.08957,420.917558 824.208221,420.176355 824.445527,419.525961 C824.682833,418.875567 825.00363,418.321861 825.407929,417.864828 C825.806369,417.419513 826.27072,417.079673 826.800996,416.845297 C827.331272,416.61092 827.880583,416.493734 828.448945,416.493734 C828.964572,416.493734 829.421599,416.547933 829.820039,416.656332 C830.218478,416.764731 830.637419,416.933186 831.076875,417.161703 L831.076875,412.907797 L832.729218,412.907797 L832.729218,426.583578 Z M831.076875,424.166586 L831.076875,418.532797 C830.63156,418.333577 830.233126,418.195883 829.881562,418.119711 C829.529998,418.043538 829.146213,418.005453 828.730195,418.005453 C827.804409,418.005453 827.083713,418.327715 826.568085,418.97225 C826.052458,419.616784 825.794648,420.530838 825.794648,421.714437 C825.794648,422.880459 825.993865,423.76668 826.392304,424.373129 C826.790744,424.979577 827.429409,425.282797 828.30832,425.282797 C828.777072,425.282797 829.251677,425.178794 829.732148,424.970785 C830.212619,424.762776 830.660857,424.494712 831.076875,424.166586 Z M844.198945,421.846273 L836.965546,421.846273 C836.965546,422.449792 837.056366,422.975665 837.238007,423.42391 C837.419649,423.872154 837.66867,424.239826 837.985078,424.526937 C838.289767,424.808189 838.651579,425.019124 839.070527,425.15975 C839.489474,425.300375 839.950895,425.370687 840.454804,425.370687 C841.122776,425.370687 841.795133,425.237388 842.471894,424.970785 C843.148655,424.704182 843.630584,424.441978 843.917695,424.184164 L844.005585,424.184164 L844.005585,425.985922 C843.448942,426.220298 842.880588,426.416585 842.300507,426.574789 C841.720426,426.732993 841.111057,426.812093 840.472382,426.812093 C838.843468,426.812093 837.571996,426.37118 836.657929,425.48934 C835.743862,424.607499 835.286835,423.35507 835.286835,421.732015 C835.286835,420.126539 835.724819,418.852137 836.6008,417.908773 C837.476781,416.965409 838.629602,416.493734 840.059296,416.493734 C841.383522,416.493734 842.404508,416.880449 843.122285,417.65389 C843.840062,418.427332 844.198945,419.525954 844.198945,420.949789 L844.198945,421.846273 Z M842.590546,420.580648 C842.584687,419.713456 842.366427,419.042565 841.935761,418.567953 C841.505095,418.093341 840.850316,417.856039 839.971406,417.856039 C839.086636,417.856039 838.382053,418.116778 837.857636,418.638265 C837.33322,419.159752 837.035859,419.807207 836.965546,420.580648 L842.590546,420.580648 Z M854.701875,426.583578 L853.049531,426.583578 L853.049531,412.907797 L854.701875,412.907797 L854.701875,426.583578 Z M866.338593,421.679281 C866.338593,423.278898 865.928441,424.541581 865.108125,425.467367 C864.287808,426.393153 863.189186,426.856039 861.812226,426.856039 C860.423547,426.856039 859.320531,426.393153 858.503144,425.467367 C857.685757,424.541581 857.27707,423.278898 857.27707,421.679281 C857.27707,420.079664 857.685757,418.815516 858.503144,417.8868 C859.320531,416.958085 860.423547,416.493734 861.812226,416.493734 C863.189186,416.493734 864.287808,416.958085 865.108125,417.8868 C865.928441,418.815516 866.338593,420.079664 866.338593,421.679281 Z M864.633515,421.679281 C864.633515,420.40779 864.384494,419.462975 863.886445,418.844808 C863.388395,418.226641 862.696996,417.917562 861.812226,417.917562 C860.915737,417.917562 860.219943,418.226641 859.724824,418.844808 C859.229704,419.462975 858.982148,420.40779 858.982148,421.679281 C858.982148,422.909756 859.231169,423.842852 859.729218,424.478597 C860.227268,425.114343 860.921597,425.432211 861.812226,425.432211 C862.691137,425.432211 863.381071,425.117272 863.88205,424.487386 C864.383029,423.8575 864.633515,422.921475 864.633515,421.679281 Z M875.909882,423.7535 C875.909882,424.649989 875.539281,425.385333 874.798066,425.959554 C874.056851,426.533776 873.044654,426.820883 871.761445,426.820883 C871.034879,426.820883 870.368381,426.734458 869.761933,426.561605 C869.155485,426.388753 868.647189,426.19979 868.237031,425.994711 L868.237031,424.140218 L868.324921,424.140218 C868.846408,424.532799 869.426481,424.844807 870.065156,425.076254 C870.703831,425.3077 871.316129,425.423422 871.90207,425.423422 C872.628636,425.423422 873.19699,425.306235 873.607148,425.071859 C874.017306,424.837483 874.222382,424.468346 874.222382,423.964437 C874.222382,423.577717 874.111055,423.284751 873.888398,423.085531 C873.665741,422.886311 873.23801,422.716391 872.605195,422.575765 C872.370819,422.523031 872.064669,422.461508 871.686738,422.391195 C871.308806,422.320882 870.964571,422.244711 870.654023,422.162679 C869.792691,421.934163 869.181857,421.598717 868.821503,421.156332 C868.46115,420.713947 868.280976,420.170495 868.280976,419.525961 C868.280976,419.121662 868.364471,418.740806 868.531464,418.383383 C868.698457,418.025959 868.951873,417.706626 869.291718,417.425375 C869.619845,417.149983 870.037321,416.931723 870.54416,416.77059 C871.050998,416.609456 871.617887,416.52889 872.244843,416.52889 C872.830784,416.52889 873.424039,416.600667 874.024628,416.744222 C874.625217,416.887778 875.124724,417.062092 875.523164,417.267172 L875.523164,419.033773 L875.435273,419.033773 C875.013396,418.723225 874.500706,418.46102 873.897187,418.247152 C873.293668,418.033284 872.701877,417.926351 872.121796,417.926351 C871.518278,417.926351 871.008517,418.042073 870.5925,418.273519 C870.176482,418.504966 869.968476,418.849201 869.968476,419.306234 C869.968476,419.710533 870.094451,420.015217 870.346406,420.220297 C870.592501,420.425376 870.990934,420.592366 871.541718,420.721273 C871.846407,420.791586 872.187712,420.861898 872.565644,420.932211 C872.943576,421.002523 873.258514,421.066976 873.510468,421.12557 C874.27805,421.301352 874.869841,421.603107 875.285859,422.030843 C875.701877,422.464439 875.909882,423.038652 875.909882,423.7535 Z M891.615937,423.7535 C891.615937,424.649989 891.245335,425.385333 890.504121,425.959554 C889.762906,426.533776 888.750709,426.820883 887.4675,426.820883 C886.740933,426.820883 886.074436,426.734458 885.467988,426.561605 C884.861539,426.388753 884.353244,426.19979 883.943085,425.994711 L883.943085,424.140218 L884.030976,424.140218 C884.552463,424.532799 885.132535,424.844807 885.77121,425.076254 C886.409886,425.3077 887.022184,425.423422 887.608125,425.423422 C888.334691,425.423422 888.903044,425.306235 889.313203,425.071859 C889.723361,424.837483 889.928437,424.468346 889.928437,423.964437 C889.928437,423.577717 889.81711,423.284751 889.594453,423.085531 C889.371795,422.886311 888.944065,422.716391 888.31125,422.575765 C888.076873,422.523031 887.770724,422.461508 887.392792,422.391195 C887.014861,422.320882 886.670626,422.244711 886.360078,422.162679 C885.498745,421.934163 884.887911,421.598717 884.527558,421.156332 C884.167205,420.713947 883.987031,420.170495 883.987031,419.525961 C883.987031,419.121662 884.070526,418.740806 884.237519,418.383383 C884.404512,418.025959 884.657927,417.706626 884.997773,417.425375 C885.3259,417.149983 885.743376,416.931723 886.250214,416.77059 C886.757053,416.609456 887.323942,416.52889 887.950898,416.52889 C888.536838,416.52889 889.130094,416.600667 889.730683,416.744222 C890.331272,416.887778 890.830779,417.062092 891.229218,417.267172 L891.229218,419.033773 L891.141328,419.033773 C890.719451,418.723225 890.20676,418.46102 889.603242,418.247152 C888.999723,418.033284 888.407932,417.926351 887.827851,417.926351 C887.224332,417.926351 886.714572,418.042073 886.298554,418.273519 C885.882536,418.504966 885.674531,418.849201 885.674531,419.306234 C885.674531,419.710533 885.800506,420.015217 886.05246,420.220297 C886.298555,420.425376 886.696989,420.592366 887.247773,420.721273 C887.552462,420.791586 887.893767,420.861898 888.271699,420.932211 C888.64963,421.002523 888.964569,421.066976 889.216523,421.12557 C889.984105,421.301352 890.575896,421.603107 890.991914,422.030843 C891.407931,422.464439 891.615937,423.038652 891.615937,423.7535 Z M901.609101,426.583578 L899.965546,426.583578 L899.965546,425.537679 C899.819061,425.637289 899.621309,425.776448 899.372285,425.95516 C899.12326,426.133872 898.881563,426.27596 898.647187,426.381429 C898.371795,426.516196 898.055392,426.628988 897.697968,426.719808 C897.340545,426.810629 896.921603,426.856039 896.441132,426.856039 C895.556362,426.856039 894.80637,426.563073 894.191132,425.977133 C893.575895,425.391192 893.268281,424.644129 893.268281,423.735922 C893.268281,422.991777 893.427947,422.389732 893.747285,421.929769 C894.066622,421.469806 894.522184,421.107993 895.113984,420.84432 C895.711643,420.580647 896.429409,420.401938 897.267304,420.308187 C898.105199,420.214437 899.004604,420.144125 899.965546,420.09725 L899.965546,419.842367 C899.965546,419.467365 899.899629,419.156821 899.767792,418.910726 C899.635956,418.664631 899.446993,418.471274 899.200898,418.330648 C898.966522,418.195882 898.685275,418.105062 898.357148,418.058187 C898.029021,418.011312 897.686251,417.987875 897.328828,417.987875 C896.895232,417.987875 896.411838,418.045003 895.878632,418.159261 C895.345427,418.27352 894.794651,418.439045 894.226289,418.655843 L894.138398,418.655843 L894.138398,416.977133 C894.460665,416.889241 894.926481,416.792563 895.535859,416.687093 C896.145237,416.581624 896.745817,416.52889 897.337617,416.52889 C898.029026,416.52889 898.631071,416.586019 899.143769,416.700277 C899.656467,416.814535 900.10031,417.009358 900.475312,417.28475 C900.844454,417.554282 901.125702,417.902912 901.319062,418.330648 C901.512422,418.758385 901.609101,419.288653 901.609101,419.921468 L901.609101,426.583578 Z M899.965546,424.166586 L899.965546,421.433187 C899.461638,421.462484 898.868382,421.506429 898.185761,421.565023 C897.503141,421.623617 896.962619,421.708577 896.564179,421.819906 C896.089567,421.954672 895.705782,422.164143 895.412812,422.448324 C895.119842,422.732505 894.973359,423.123614 894.973359,423.621664 C894.973359,424.184167 895.143279,424.607502 895.483125,424.891683 C895.82297,425.175864 896.341519,425.317953 897.038789,425.317953 C897.61887,425.317953 898.149138,425.205161 898.629609,424.979574 C899.11008,424.753987 899.555388,424.482993 899.965546,424.166586 Z M910.916718,418.567953 L910.828828,418.567953 C910.582733,418.509359 910.343966,418.466879 910.112519,418.440511 C909.881073,418.414144 909.60715,418.400961 909.290742,418.400961 C908.780974,418.400961 908.288791,418.513752 907.814179,418.73934 C907.339567,418.964927 906.882541,419.256428 906.443085,419.613851 L906.443085,426.583578 L904.790742,426.583578 L904.790742,416.766195 L906.443085,416.766195 L906.443085,418.21639 C907.099339,417.689044 907.677946,417.315513 908.178925,417.095785 C908.679904,416.876057 909.19113,416.766195 909.712617,416.766195 C909.999727,416.766195 910.207733,416.773519 910.33664,416.788168 C910.465547,416.802816 910.658904,416.830648 910.916718,416.871664 L910.916718,418.567953 Z M920.435273,425.467367 C920.435273,427.131438 920.057347,428.353105 919.301484,429.132406 C918.545621,429.911707 917.382546,430.301351 915.812226,430.301351 C915.290739,430.301351 914.782443,430.264731 914.287324,430.191488 C913.792204,430.118245 913.304416,430.014243 912.823945,429.879476 L912.823945,428.191976 L912.911835,428.191976 C913.181368,428.297446 913.609098,428.427815 914.195039,428.58309 C914.780979,428.738364 915.366911,428.816 915.952851,428.816 C916.515354,428.816 916.98117,428.748618 917.350312,428.613851 C917.719454,428.479085 918.006561,428.291587 918.21164,428.051351 C918.416719,427.822834 918.563202,427.547447 918.651093,427.225179 C918.738984,426.902912 918.782929,426.542564 918.782929,426.144125 L918.782929,425.24764 C918.28488,425.64608 917.80881,425.94344 917.354707,426.13973 C916.900603,426.33602 916.321995,426.434164 915.618867,426.434164 C914.446986,426.434164 913.516819,426.010828 912.828339,425.164144 C912.139859,424.31746 911.795625,423.123625 911.795625,421.582601 C911.795625,420.738847 911.914276,420.010827 912.151582,419.398519 C912.388887,418.786211 912.712615,418.257408 913.122773,417.812093 C913.503634,417.396076 913.96652,417.072349 914.511445,416.840902 C915.056369,416.609456 915.598356,416.493734 916.137421,416.493734 C916.705784,416.493734 917.181853,416.550862 917.565644,416.665121 C917.949435,416.779379 918.355193,416.953694 918.782929,417.18807 L918.888398,416.766195 L920.435273,416.766195 L920.435273,425.467367 Z M918.782929,423.885336 L918.782929,418.532797 C918.343474,418.333577 917.934787,418.191488 917.556855,418.106527 C917.178923,418.021566 916.802462,417.979086 916.42746,417.979086 C915.519253,417.979086 914.804416,418.28377 914.282929,418.893148 C913.761442,419.502526 913.500703,420.387283 913.500703,421.547445 C913.500703,422.649013 913.69406,423.483966 914.080781,424.052328 C914.467501,424.62069 915.109097,424.904867 916.005585,424.904867 C916.486057,424.904867 916.967985,424.812583 917.451386,424.628011 C917.934787,424.44344 918.37863,424.195884 918.782929,423.885336 Z M931.316132,426.583578 L929.672578,426.583578 L929.672578,425.537679 C929.526093,425.637289 929.328341,425.776448 929.079316,425.95516 C928.830291,426.133872 928.588594,426.27596 928.354218,426.381429 C928.078826,426.516196 927.762423,426.628988 927.405,426.719808 C927.047576,426.810629 926.628635,426.856039 926.148164,426.856039 C925.263394,426.856039 924.513401,426.563073 923.898164,425.977133 C923.282926,425.391192 922.975312,424.644129 922.975312,423.735922 C922.975312,422.991777 923.134978,422.389732 923.454316,421.929769 C923.773653,421.469806 924.229215,421.107993 924.821015,420.84432 C925.418674,420.580647 926.136441,420.401938 926.974335,420.308187 C927.81223,420.214437 928.711635,420.144125 929.672578,420.09725 L929.672578,419.842367 C929.672578,419.467365 929.60666,419.156821 929.474824,418.910726 C929.342987,418.664631 929.154024,418.471274 928.907929,418.330648 C928.673553,418.195882 928.392306,418.105062 928.064179,418.058187 C927.736053,418.011312 927.393283,417.987875 927.035859,417.987875 C926.602263,417.987875 926.118869,418.045003 925.585664,418.159261 C925.052458,418.27352 924.501682,418.439045 923.93332,418.655843 L923.845429,418.655843 L923.845429,416.977133 C924.167696,416.889241 924.633512,416.792563 925.24289,416.687093 C925.852268,416.581624 926.452848,416.52889 927.044648,416.52889 C927.736058,416.52889 928.338102,416.586019 928.8508,416.700277 C929.363498,416.814535 929.807341,417.009358 930.182343,417.28475 C930.551486,417.554282 930.832733,417.902912 931.026093,418.330648 C931.219454,418.758385 931.316132,419.288653 931.316132,419.921468 L931.316132,426.583578 Z M929.672578,424.166586 L929.672578,421.433187 C929.168669,421.462484 928.575413,421.506429 927.892792,421.565023 C927.210172,421.623617 926.66965,421.708577 926.27121,421.819906 C925.796599,421.954672 925.412813,422.164143 925.119843,422.448324 C924.826873,422.732505 924.68039,423.123614 924.68039,423.621664 C924.68039,424.184167 924.85031,424.607502 925.190156,424.891683 C925.530001,425.175864 926.048551,425.317953 926.74582,425.317953 C927.325901,425.317953 927.856169,425.205161 928.33664,424.979574 C928.817111,424.753987 929.262419,424.482993 929.672578,424.166586 Z M941.616914,426.583578 L933.689179,426.583578 L933.689179,425.361898 L939.410859,418.146078 L933.812226,418.146078 L933.812226,416.766195 L941.4675,416.766195 L941.4675,417.943929 L935.719453,425.186117 L941.616914,425.186117 L941.616914,426.583578 Z M952.216523,421.679281 C952.216523,423.278898 951.806371,424.541581 950.986054,425.467367 C950.165738,426.393153 949.067116,426.856039 947.690156,426.856039 C946.301477,426.856039 945.198461,426.393153 944.381074,425.467367 C943.563687,424.541581 943.155,423.278898 943.155,421.679281 C943.155,420.079664 943.563687,418.815516 944.381074,417.8868 C945.198461,416.958085 946.301477,416.493734 947.690156,416.493734 C949.067116,416.493734 950.165738,416.958085 950.986054,417.8868 C951.806371,418.815516 952.216523,420.079664 952.216523,421.679281 Z M950.511445,421.679281 C950.511445,420.40779 950.262424,419.462975 949.764375,418.844808 C949.266325,418.226641 948.574926,417.917562 947.690156,417.917562 C946.793667,417.917562 946.097873,418.226641 945.602753,418.844808 C945.107634,419.462975 944.860078,420.40779 944.860078,421.679281 C944.860078,422.909756 945.109099,423.842852 945.607148,424.478597 C946.105197,425.114343 946.799526,425.432211 947.690156,425.432211 C948.569066,425.432211 949.259001,425.117272 949.75998,424.487386 C950.260959,423.8575 950.511445,422.921475 950.511445,421.679281 Z M961.787812,423.7535 C961.787812,424.649989 961.41721,425.385333 960.675996,425.959554 C959.934781,426.533776 958.922584,426.820883 957.639375,426.820883 C956.912808,426.820883 956.246311,426.734458 955.639863,426.561605 C955.033414,426.388753 954.525119,426.19979 954.11496,425.994711 L954.11496,424.140218 L954.202851,424.140218 C954.724338,424.532799 955.30441,424.844807 955.943085,425.076254 C956.581761,425.3077 957.194059,425.423422 957.78,425.423422 C958.506566,425.423422 959.074919,425.306235 959.485078,425.071859 C959.895236,424.837483 960.100312,424.468346 960.100312,423.964437 C960.100312,423.577717 959.988985,423.284751 959.766328,423.085531 C959.54367,422.886311 959.11594,422.716391 958.483125,422.575765 C958.248748,422.523031 957.942599,422.461508 957.564667,422.391195 C957.186736,422.320882 956.842501,422.244711 956.531953,422.162679 C955.67062,421.934163 955.059786,421.598717 954.699433,421.156332 C954.33908,420.713947 954.158906,420.170495 954.158906,419.525961 C954.158906,419.121662 954.242401,418.740806 954.409394,418.383383 C954.576387,418.025959 954.829802,417.706626 955.169648,417.425375 C955.497775,417.149983 955.915251,416.931723 956.422089,416.77059 C956.928928,416.609456 957.495817,416.52889 958.122773,416.52889 C958.708713,416.52889 959.301969,416.600667 959.902558,416.744222 C960.503147,416.887778 961.002654,417.062092 961.401093,417.267172 L961.401093,419.033773 L961.313203,419.033773 C960.891326,418.723225 960.378635,418.46102 959.775117,418.247152 C959.171598,418.033284 958.579807,417.926351 957.999726,417.926351 C957.396207,417.926351 956.886447,418.042073 956.470429,418.273519 C956.054411,418.504966 955.846406,418.849201 955.846406,419.306234 C955.846406,419.710533 955.972381,420.015217 956.224335,420.220297 C956.47043,420.425376 956.868864,420.592366 957.419648,420.721273 C957.724337,420.791586 958.065642,420.861898 958.443574,420.932211 C958.821505,421.002523 959.136444,421.066976 959.388398,421.12557 C960.15598,421.301352 960.747771,421.603107 961.163789,422.030843 C961.579806,422.464439 961.787812,423.038652 961.787812,423.7535 Z" id="Mar-de-los-sargazos" fill="#000000" transform="translate(873.347871, 421.604574) rotate(-90.000000) translate(-873.347871, -421.604574) "></path>
        </g>
    </g>
</svg>