<?xml version="1.0" encoding="UTF-8"?>
<svg width="24px" height="24px" viewBox="0 0 24 24" version="1.1" xmlns="http://www.w3.org/2000/svg" xmlns:xlink="http://www.w3.org/1999/xlink">
    <!-- Generator: sketchtool 51.2 (57519) - http://www.bohemiancoding.com/sketch -->
    <title>C22B7FEE-3A79-4FE1-8B61-A4FB81AA89D9-483-000000319C680473-g</title>
    <desc>Created with sketchtool.</desc>
    <defs></defs>
    <g id="FRONTEND" stroke="none" stroke-width="1" fill="none" fill-rule="evenodd" opacity="0.596763411">
        <g id="Activid.-PARA-VER-+" transform="translate(-1138.000000, -1353.000000)" fill="#FFFFFF">
            <g id="FOOTER" transform="translate(0.000000, 1233.000000)">
                <g id="Group-3-Copy">
                    <g transform="translate(1072.000000, 120.000000)">
                        <path d="M78.0000238,0 C81.2590043,0 81.6676571,0.0138138818 82.9475847,0.0722132578 C84.2248447,0.130469732 85.0971676,0.333343257 85.860456,0.630008276 C86.6495621,0.936628817 87.3187732,1.34694874 87.985936,2.01406396 C88.6530513,2.68122682 89.0633712,3.35043794 89.3700394,4.13954402 C89.6666567,4.90283244 89.8695303,5.77515526 89.9277867,7.05241535 C89.9861861,8.33234294 90,8.74099567 90,12.0000238 C90,15.2590043 89.9861861,15.6676571 89.9277867,16.9475847 C89.8695303,18.2248447 89.6666567,19.0971676 89.3700394,19.860456 C89.0633712,20.6495621 88.6530513,21.3187732 87.985936,21.985936 C87.3187732,22.6530513 86.6495621,23.0633712 85.860456,23.3700394 C85.0971676,23.6666567 84.2248447,23.8695303 82.9475847,23.9277867 C81.6676571,23.9861861 81.2590043,24 78.0000238,24 C74.7409957,24 74.3323429,23.9861861 73.0524153,23.9277867 C71.7751553,23.8695303 70.9028324,23.6666567 70.139544,23.3700394 C69.3504379,23.0633712 68.6812268,22.6530513 68.014064,21.985936 C67.3469487,21.3187732 66.9366288,20.6495621 66.6300083,19.860456 C66.3333433,19.0971676 66.1304697,18.2248447 66.0722133,16.9475847 C66.0138139,15.6676571 66,15.2590043 66,12.0000238 C66,8.74099567 66.0138139,8.33234294 66.0722133,7.05241535 C66.1304697,5.77515526 66.3333433,4.90283244 66.6300083,4.13954402 C66.9366288,3.35043794 67.3469487,2.68122682 68.014064,2.01406396 C68.6812268,1.34694874 69.3504379,0.936628817 70.139544,0.630008276 C70.9028324,0.333343257 71.7751553,0.130469732 73.0524153,0.0722132578 C74.3323429,0.0138138818 74.7409957,0 78.0000238,0 Z M78.0000238,2.1621583 C74.7958701,2.1621583 74.4163218,2.17440026 73.1509702,2.23213276 C71.9809821,2.28548292 71.3455912,2.48097316 70.9227435,2.64531072 C70.3626144,2.86299845 69.9628692,3.12303286 69.5429749,3.54297487 C69.1230329,3.96286924 68.8629984,4.3626144 68.6453107,4.92274348 C68.4809732,5.34559117 68.2854829,5.9809821 68.2321328,7.15097025 C68.1744003,8.41632182 68.1621583,8.79587013 68.1621583,12.0000238 C68.1621583,15.2041299 68.1744003,15.5836782 68.2321328,16.8490298 C68.2854829,18.0190179 68.4809732,18.6544088 68.6453107,19.0772565 C68.8629984,19.6373856 69.1230805,20.0371308 69.5429749,20.4570251 C69.9628692,20.8769671 70.3626144,21.1370016 70.9227435,21.3546893 C71.3455912,21.5190268 71.9809821,21.7145171 73.1509702,21.7678672 C74.4161789,21.8255997 74.795632,21.8378417 78.0000238,21.8378417 C81.204368,21.8378417 81.5838687,21.8255997 82.8490298,21.7678672 C84.0190179,21.7145171 84.6544088,21.5190268 85.0772565,21.3546893 C85.6373856,21.1370016 86.0371308,20.8769671 86.4570251,20.4570251 C86.8769671,20.0371308 87.1370016,19.6373856 87.3546893,19.0772565 C87.5190268,18.6544088 87.7145171,18.0190179 87.7678672,16.8490298 C87.8255997,15.5836782 87.8378417,15.2041299 87.8378417,12.0000238 C87.8378417,8.79587013 87.8255997,8.41632182 87.7678672,7.15097025 C87.7145171,5.9809821 87.5190268,5.34559117 87.3546893,4.92274348 C87.1370016,4.3626144 86.8769671,3.96286924 86.4570251,3.54297487 C86.0371308,3.12303286 85.6373856,2.86299845 85.0772565,2.64531072 C84.6544088,2.48097316 84.0190179,2.28548292 82.8490298,2.23213276 C81.5836782,2.17440026 81.2041299,2.1621583 78.0000238,2.1621583 Z M78.0000238,5.8378417 C81.4032879,5.8378417 84.1621583,8.59671206 84.1621583,12.0000238 C84.1621583,15.4032879 81.4032879,18.1621583 78.0000238,18.1621583 C74.5967121,18.1621583 71.8378417,15.4032879 71.8378417,12.0000238 C71.8378417,8.59671206 74.5967121,5.8378417 78.0000238,5.8378417 Z M78.0000238,16 C80.2091493,16 82,14.2091493 82,12.0000238 C82,9.79085069 80.2091493,8 78.0000238,8 C75.7908507,8 74,9.79085069 74,12.0000238 C74,14.2091493 75.7908507,16 78.0000238,16 Z M85.8456418,5.59438394 C85.8456418,6.38968246 85.2009146,7.03436203 84.4056161,7.03436203 C83.6103652,7.03436203 82.965638,6.38968246 82.965638,5.59438394 C82.965638,4.79908543 83.6103652,4.15435822 84.4056161,4.15435822 C85.2009146,4.15435822 85.8456418,4.79908543 85.8456418,5.59438394 Z" id="Instagram"></path>
                    </g>
                </g>
            </g>
        </g>
    </g>
</svg>