<?xml version="1.0" encoding="UTF-8"?>
<svg width="24px" height="20px" viewBox="0 0 24 20" version="1.1" xmlns="http://www.w3.org/2000/svg" xmlns:xlink="http://www.w3.org/1999/xlink">
    <!-- Generator: sketchtool 51.2 (57519) - http://www.bohemiancoding.com/sketch -->
    <title>5FA03E65-BB2E-4D74-B04B-5199D742156A-483-000000319C6846A5-g</title>
    <desc>Created with sketchtool.</desc>
    <defs></defs>
    <g id="FRONTEND" stroke="none" stroke-width="1" fill="none" fill-rule="evenodd" opacity="0.596763411">
        <g id="Activid.-PARA-VER-+" transform="translate(-1104.000000, -1355.000000)" fill="#FFFFFF">
            <g id="FOOTER" transform="translate(0.000000, 1233.000000)">
                <g id="Group-3-Copy">
                    <g transform="translate(1072.000000, 120.000000)">
                        <path d="M56,4.36764175 C55.1181546,4.76923077 54.1686917,5.04080896 53.1727417,5.1621524 C54.1898222,4.5381004 54.9702412,3.54857349 55.3379116,2.3698086 C54.3856313,2.94763453 53.3333333,3.36800289 52.2091918,3.593355 C51.3132594,2.61249549 50.0327522,2 48.6156013,2 C45.8982215,2 43.693608,4.26074395 43.693608,7.04875406 C43.693608,7.44456482 43.735869,7.82881907 43.8203909,8.19862766 C39.7281211,7.9877212 36.100722,5.97977609 33.6707167,2.92163236 C33.2466984,3.66991694 33.0044022,4.5381004 33.0044022,5.46262189 C33.0044022,7.21343445 33.8735693,8.75911882 35.1949287,9.66486096 C34.389153,9.64030336 33.6284557,9.41061755 32.9635499,9.0350307 L32.9635499,9.09714698 C32.9635499,11.5442398 34.6610319,13.5854099 36.9149498,14.0476706 C36.5022011,14.166125 36.0669132,14.2253521 35.6175383,14.2253521 C35.3005811,14.2253521 34.9906674,14.1950163 34.6906145,14.1357891 C35.3174855,16.1408451 37.1347068,17.6013001 39.2900158,17.6403034 C37.6052122,18.9953052 35.4808945,19.8028169 33.1748547,19.8028169 C32.7776017,19.8028169 32.3845747,19.7797039 32,19.7334778 C34.1792569,21.163597 36.7684451,22 39.5478077,22 C48.6057404,22 53.5573164,14.3076923 53.5573164,7.63524738 C53.5573164,7.41567353 53.5530903,7.19609967 53.5446381,6.98085952 C54.5067794,6.26868906 55.3421377,5.38028169 56,4.36764175" id="Twitter"></path>
                    </g>
                </g>
            </g>
        </g>
    </g>
</svg>